<?xml version="1.0" encoding="UTF-8"?>
<svg width="129px" height="124px" viewBox="0 0 129 124" version="1.1" xmlns="http://www.w3.org/2000/svg" xmlns:xlink="http://www.w3.org/1999/xlink">
    <!-- Generator: Sketch 52.6 (67491) - http://www.bohemiancoding.com/sketch -->
    <title>Icon/Party</title>
    <desc>Created with Sketch.</desc>
    <g id="Mobile" stroke="none" stroke-width="1" fill="none" fill-rule="evenodd">
        <g id="Welcome" transform="translate(-92.000000, -645.000000)">
            <g id="Second-Container" transform="translate(0.000000, 575.000000)">
                <g id="Icon/Party" transform="translate(77.000000, 54.000000)">
                    <g id="Streamers" stroke-width="1" transform="translate(75.000000, 20.000000)" stroke="#161616" stroke-linecap="round">
                        <path d="M5,15.28125 L5,0" id="Top-Streamer" stroke-width="7.5"></path>
                        <polyline id="Middle-Streamer" stroke-width="7.5" stroke-linejoin="round" points="50 0 50 25 37.5 20 27.5 37.5"></polyline>
                        <path d="M65,60 L45,60" id="Bottom-Streamer" stroke-width="7.5"></path>
                    </g>
                    <g id="Confetti" stroke-width="1" transform="translate(90.000000, 20.000000)">
                        <rect id="Rectangle" fill="#EAC34F" x="0" y="15" width="7.5" height="7.5" rx="1.5"></rect>
                        <rect id="Rectangle" fill="#14AB69" transform="translate(38.750000, 38.750000) rotate(86.000000) translate(-38.750000, -38.750000) " x="35" y="35" width="7.5" height="7.5" rx="1.5"></rect>
                        <rect id="Rectangle" fill="#EB4C00" x="20" y="40" width="7.5" height="7.5" rx="1.5"></rect>
                        <rect id="Rectangle" fill="#161616" transform="translate(14.454282, 9.454282) rotate(20.000000) translate(-14.454282, -9.454282) " x="10.7042819" y="5.70428191" width="7.5" height="7.5" rx="1.5"></rect>
                        <rect id="Rectangle" fill="#403EBE" transform="translate(38.918301, 73.918301) rotate(86.000000) translate(-38.918301, -73.918301) " x="35.1683013" y="70.1683013" width="7.5" height="7.5" rx="1.5"></rect>
                    </g>
                    <polygon id="Bugle" stroke="#161616" stroke-width="10" fill-opacity="0.8" fill="#4F52EA" stroke-linejoin="round" points="20 135 60 40 115 100"></polygon>
                </g>
            </g>
        </g>
    </g>
</svg>